<?xml version="1.0" encoding="UTF-8"?>
<svg width="1416px" height="353px" viewBox="0 0 1416 353" version="1.1" xmlns="http://www.w3.org/2000/svg" xmlns:xlink="http://www.w3.org/1999/xlink">
    <!-- Generator: Sketch 51.2 (57519) - http://www.bohemiancoding.com/sketch -->
    <title>Group</title>
    <desc>Created with Sketch.</desc>
    <defs></defs>
    <g id="Page-1" stroke="none" stroke-width="1" fill="none" fill-rule="evenodd">
        <g id="Group" transform="translate(0.000000, -1.000000)" fill-rule="nonzero">
            <g id="Logo-Blu-icona" transform="translate(168.000000, 177.500000) scale(-1, 1) rotate(-180.000000) translate(-168.000000, -177.500000) translate(0.000000, 0.000000)">
                <g id="g20" transform="translate(0.786248, 19.358097)" fill="#3EAEE8">
                    <path d="M0,167.547627 C0,75.2738363 74.8038856,0.465864134 167.081763,0.465864134 C259.355553,0.465864134 334.159439,75.2738363 334.159439,167.547627 C334.159439,259.825504 259.355553,334.62939 167.081763,334.62939 C74.8038856,334.62939 0,259.825504 0,167.547627" id="path22"></path>
                </g>
                <g id="g24" transform="translate(0.684493, 18.993170)" fill="#2092CB">
                    <path d="M49.0383298,286.056924 C-16.2112545,220.80734 -16.2112545,115.019403 49.0383298,49.7698183 C114.287914,-15.4797661 220.075851,-15.4797661 285.325436,49.7698183" id="path26"></path>
                </g>
                <g id="g28" transform="translate(28.810393, 0.892906)" fill="#2092CB">
                    <polyline id="path30" points="7.24585602 83.3310503 0.519431778 0.153869872 89.380972 29.3766279"></polyline>
                </g>
                <g id="g32" transform="translate(97.666190, 101.934967)" fill="#FFFFFF">
                    <path d="M10.7007545,0 C16.5526619,0 21.2930338,4.74037188 21.2930338,10.5922792 L21.2930338,97.1939697 C21.2930338,103.045877 16.5526619,107.786249 10.7007545,107.786249 C4.84884717,107.786249 0.108475282,103.045877 0.108475282,97.1939697 L0.108475282,10.5922792 C0.108475282,4.74037188 4.84884717,0 10.7007545,0" id="path34"></path>
                </g>
                <g id="g36" transform="translate(97.666190, 101.934967)" fill="#FFFFFF">
                    <path d="M10.7007545,0 L129.696348,0 C135.544169,0 140.288628,4.74037188 140.288628,10.5922792 C140.288628,16.4401001 135.544169,21.1845585 129.696348,21.1845585 L10.7007545,21.1845585 C4.84884717,21.1845585 0.108475282,16.4401001 0.108475282,10.5922792 C0.108475282,4.74037188 4.84884717,0 10.7007545,0" id="path38"></path>
                </g>
                <g id="g40" transform="translate(68.276293, 206.189240)" fill="#FFFFFF">
                    <path d="M10.7007545,0.0416726704 C13.0014695,0.0416726704 15.3226171,0.7895072 17.2678042,2.33012806 L99.5909004,67.5225011 L181.90991,2.33012806 C186.503167,-1.3068814 193.16012,-0.52635465 196.793043,4.05872919 C200.425966,8.64381303 199.649526,15.3048528 195.060356,18.9377758 L106.166123,89.3404713 C102.320701,92.3931073 96.8651866,92.3931073 93.0197642,89.3404713 L4.11735875,18.9377758 C-0.471811621,15.3048528 -1.24416532,8.64381303 2.38875762,4.05872919 C4.47697317,1.41883243 7.57047447,0.0416726704 10.7007545,0.0416726704" id="path42"></path>
                </g>
                <g id="g44" transform="translate(216.660149, 101.934967)" fill="#FFFFFF">
                    <path d="M10.7007545,0 C16.5526619,0 21.2971203,4.74037188 21.2971203,10.5922792 L21.2971203,97.1939697 C21.2971203,103.045877 16.5526619,107.786249 10.7007545,107.786249 C4.84884717,107.786249 0.108475282,103.045877 0.108475282,97.1939697 L0.108475282,10.5922792 C0.108475282,4.74037188 4.84884717,0 10.7007545,0" id="path46"></path>
                </g>
            </g>
            <g id="logo-scritta-blu" transform="translate(919.000000, 177.000000) scale(1, -1) translate(-919.000000, -177.000000) translate(422.000000, 100.000000)">
                <g id="g20" transform="translate(0.000000, 4.000000)" fill="#3EAEE8">
                    <path d="M31.8796288,84.4227251 L43.5513415,84.4227251 C52.2539709,84.6353453 60.9524244,85.2690368 65.8340816,93.7446616 C66.8947668,95.6499053 68.5901927,99.0393214 68.5901927,104.333981 C68.5901927,106.451845 68.3772205,111.959125 64.3432761,116.624262 C58.8268781,122.977854 50.7631654,123.611546 42.9166007,123.824166 L31.8796288,123.824166 L31.8796288,84.4227251 Z M40.1563138,149.880563 C44.1860822,149.880563 48.0070543,149.880563 52.0368227,149.667942 C68.1642483,149.034251 83.8657293,145.432214 93.4160717,130.602998 C99.9973308,120.64737 100.419099,109.63281 100.419099,105.605533 C100.419099,92.047869 95.1156735,77.4312727 83.2309886,69.8061288 C78.9840721,67.0545733 76.0149888,65.9956414 66.6817946,63.8777774 L109.965266,0.329352776 L71.3463037,0.329352776 L31.6666566,63.4525371 L31.6666566,0.329352776 L0.0548981086,0.329352776 L0.0548981086,149.880563 L40.1563138,149.880563 Z" id="path22"></path>
                </g>
                <g id="g24" transform="translate(108.000000, 0.000000)" fill="#3EAEE8">
                    <path d="M42.6340568,71.108079 C34.8143469,66.8541428 31.0126368,58.7812844 31.0126368,50.0684533 C31.0126368,48.3660422 31.0126368,44.7520787 32.9134919,40.289001 C36.2951005,32.2119598 44.110651,27.1089094 52.7788827,27.1089094 C65.6730852,27.1089094 74.1250271,38.1641243 74.1250271,50.4909189 C74.1250271,62.8177136 65.6730852,74.077887 52.5709117,73.8687456 C50.4537668,73.6554214 47.0721582,73.4420972 42.6340568,71.108079 M95.259041,80.0300515 C103.923113,68.5565538 104.767476,55.163138 104.767476,50.4909189 C104.767476,40.7114667 101.814287,33.0610739 100.333534,29.8779417 C91.8815918,10.9590098 73.4927952,0.7570919 53.2031435,0.7570919 C39.6767091,0.7570919 29.9519847,5.22016957 25.5180428,7.55837052 C23.8293182,8.62080888 20.0192893,10.7456856 16.2134198,14.3596491 C1.63465206,27.3222337 0.786130337,43.4804989 0.786130337,50.7042432 C0.786130337,74.2912113 13.8924633,85.982216 21.5000429,91.0852664 C26.7825065,94.6950471 36.2951005,100.011422 51.5144189,100.220563 C76.0258821,100.433887 89.5523165,87.6804443 95.259041,80.0300515" id="path26"></path>
                </g>
                <g id="g28" transform="translate(227.000000, 0.000000)" fill="#3EAEE8">
                    <path d="M42.6340568,71.108079 C34.8143469,66.8541428 31.0126368,58.7812844 31.0126368,50.0684533 C31.0126368,48.3660422 31.0126368,44.7520787 32.9134919,40.289001 C36.2951005,32.2119598 44.1148104,27.1089094 52.7788827,27.1089094 C65.6730852,27.1089094 74.1250271,38.1641243 74.1250271,50.4909189 C74.1250271,62.8177136 65.6730852,74.077887 52.5709117,73.8687456 C50.4537668,73.6554214 47.0721582,73.4420972 42.6340568,71.108079 M95.259041,80.0300515 C103.923113,68.5565538 104.767476,55.163138 104.767476,50.4909189 C104.767476,40.7114667 101.814287,33.0610739 100.333534,29.8779417 C91.8815918,10.9590098 73.4927952,0.7570919 53.2031435,0.7570919 C39.6767091,0.7570919 29.9519847,5.22016957 25.5180428,7.55837052 C23.8251587,8.62080888 20.0192893,10.7456856 16.2134198,14.3596491 C1.63465206,27.3222337 0.786130337,43.4804989 0.786130337,50.7042432 C0.786130337,74.2912113 13.8924633,85.982216 21.5000429,91.0852664 C26.7825065,94.6950471 36.2951005,100.011422 51.5144189,100.220563 C76.0258821,100.433887 89.5523165,87.6804443 95.259041,80.0300515" id="path30"></path>
                </g>
                <g id="g32" transform="translate(351.000000, 4.000000)" fill="#3EAEE8">
                    <path d="M153.683003,0 L123.714817,0 L123.714817,51.2138146 C123.714817,55.2372812 124.557997,68.7779538 109.364148,68.7779538 C106.826301,68.7779538 99.6530433,68.5655348 95.013478,62.0097 C92.0561186,57.7738144 91.8442853,52.9090019 91.8442853,48.0400242 L91.8442853,0 L61.6642664,0 L61.6642664,49.9434654 C61.6642664,56.2952113 61.6642664,63.0676302 55.5460215,67.0869317 C54.2791751,67.7200237 51.533649,69.2027919 47.5254302,69.2027919 C45.8349172,69.2027919 42.0385316,68.9903729 38.0261592,66.4538396 C29.1623882,60.9517699 30.0055679,50.5807225 30.0055679,47.6193512 L30.0055679,0 L0.037382352,0 L0.037382352,92.4814199 L30.4292345,92.4814199 L30.4292345,78.7241631 C34.441607,84.8634899 41.4030316,94.5972802 59.342407,94.5972802 C63.7742925,94.5972802 75.1717563,94.1766072 83.6118607,84.4386519 C85.7218867,82.1103726 86.9928867,79.7862583 88.4674128,77.2413949 C89.9460925,78.9365822 91.2087853,80.6317694 92.8992983,82.3227916 C97.1193505,86.9793502 104.928108,94.3890262 120.333791,94.3890262 C140.383193,94.3890262 149.043437,82.9558836 151.572977,75.1296997 C153.051656,70.8938141 153.471169,67.0869317 153.683003,58.4069065 L153.683003,0 Z" id="path34"></path>
                </g>
                <g id="g36" transform="translate(524.000000, 4.000000)" fill="#2092CB">
                    <path d="M76.6949133,86.0242402 C79.6635912,77.1275442 82.8407436,68.4434683 85.5967775,59.334152 C86.8643029,55.1025932 87.9233537,50.8626963 88.9824045,46.6269685 C91.1046756,53.831041 93.2227773,60.8224934 95.3408789,68.0223969 C97.8842687,75.6475408 100.636133,83.2726847 103.179523,90.8978287 L123.939421,149.789454 L157.203623,149.789454 L178.388809,0.234075377 L146.821589,0.234075377 L137.923895,72.2539557 C137.285963,79.2454081 136.439556,86.2368604 136.018437,93.2283128 C135.805793,98.3103524 135.805793,103.396561 135.805793,108.48277 C132.203353,95.7714171 128.179793,83.0600646 123.939421,70.5613322 L99.1559636,0.234075377 L78.8171844,0.234075377 L51.6988122,75.2223004 C49.363897,81.367441 47.2499649,87.5084126 45.5529818,93.8661734 C44.0728124,98.3103524 43.0095921,102.762869 41.7378972,107.423838 C41.7378972,101.703937 41.5252531,96.1924885 41.3167786,90.4725883 C40.6788464,83.2726847 39.8324396,76.0686122 38.9860329,68.8687087 L31.147389,0.234075377 L0.00128807243,0.234075377 L20.9779994,149.789454 L54.4506765,149.789454 L76.6949133,86.0242402 Z" id="path38"></path>
                </g>
                <g id="g40" transform="translate(712.000000, 0.000000)" fill="#2092CB">
                    <path d="M37.4347817,65.9252509 C31.9401876,59.5506207 31.9401876,52.5360179 31.9401876,49.562027 C31.9401876,37.0219081 38.0670135,30.6430952 42.5051149,27.8782457 C44.1979989,26.606666 48.8440712,24.268465 54.9750566,24.268465 C68.7136215,24.268465 76.9534329,35.7419627 76.9534329,48.4954058 C76.9534329,61.8846388 67.8650998,73.3623194 53.9185639,73.3623194 C50.7449263,73.3623194 43.3494772,72.7223466 37.4347817,65.9252509 Z M75.0525778,96.3134976 L104.850664,96.3134976 L104.850664,3.65130493 L75.2647083,3.65130493 L75.2647083,12.7907845 C73.1517228,11.0925563 71.2508678,9.18100379 68.9215925,7.68773413 C65.1198824,5.14039177 56.0315493,0.250665625 43.5616076,0.250665625 C40.6042599,0.250665625 33.2046513,0.463989862 25.8092023,4.07795341 C8.26476791,12.1549946 0.44505796,31.2830679 0.44505796,49.562027 C0.44505796,55.9324743 1.08144925,73.784785 14.8200141,87.3873422 C23.0598255,95.4643834 32.7845499,98.6558813 43.9858685,98.6558813 C48.2118394,98.6558813 58.5687956,98.4425571 67.8650998,91.0054886 C70.8224475,88.6631048 72.7274619,86.3249039 75.0525778,83.5642373 L75.0525778,96.3134976 Z" id="path42"></path>
                </g>
                <g id="g44" transform="translate(832.000000, 3.000000)" fill="#2092CB">
                    <polygon id="path46" points="42.9544704 93.0568249 59.54567 93.0568249 59.54567 70.7440986 42.7436704 70.7440986 42.7436704 0.618984645 12.9175378 0.618984645 12.9175378 70.7440986 0.323271474 70.7440986 0.323271474 93.0568249 12.9175378 93.0568249 12.9175378 126.423447 42.9544704 126.423447"></polygon>
                </g>
                <g id="g48" transform="translate(898.000000, 0.000000)" fill="#2092CB">
                    <path d="M66.3190087,61.2121196 C65.8964524,63.7636448 63.7960993,72.8989416 56.0036652,76.9395536 C54.528861,77.7886677 51.3762601,79.0644303 47.1631258,79.0644303 C43.3766905,79.0644303 35.5842563,77.7886677 30.9568512,68.6491881 C30.3271596,66.9509599 29.6933252,65.0394074 28.6369346,61.2121196 L66.3190087,61.2121196 Z M28.6369346,43.5731332 C29.2749117,40.3858181 29.9046033,37.1985031 31.5865429,34.2203294 C35.1617001,27.4190508 42.1090218,23.5959458 49.6901778,23.5959458 C61.2649046,23.5959458 66.7415649,32.7312426 68.4235044,35.496092 L92.6334913,23.8092701 C91.3699653,22.1026762 89.8951612,19.3420096 86.5271394,15.9455531 C76.6343521,5.52612811 63.162265,0.640584794 49.0563435,0.640584794 C25.4843336,0.640584794 12.6419381,13.8164936 7.58783408,21.4668863 C4.64236853,25.929964 0.0108207304,35.9227405 0.0108207304,49.9519462 C0.0108207304,54.6241653 0.22209885,63.3411792 5.27620289,73.7522385 C7.37655596,78.4286404 12.0122465,86.9281473 23.3798379,93.5161017 C27.1662732,95.6409784 36.0109552,99.8949146 48.0040956,99.8949146 C54.7401392,99.8949146 59.7942432,98.619152 62.3171525,97.9833622 C84.2113655,91.8178734 91.1586872,75.0238183 93.4744611,67.1642841 C95.1564006,60.3630055 95.3676788,52.925937 95.1564006,43.5731332 L28.6369346,43.5731332 Z" id="path50"></path>
                </g>
            </g>
        </g>
    </g>
</svg>